<svg xmlns="http://www.w3.org/2000/svg" width="594.823" height="181.141" viewBox="0 0 594.823 181.141"><path fill="none" d="M-81.067-81.067h740.506v343.272H-81.067z"/><path fill="#F79E1B" d="M51.466 123.297c-3.111-1.968-6.358-3.497-9.744-4.588-3.386-1.087-6.928-1.63-10.625-1.63-2.418 0-4.63.252-6.633.753-2.005.497-3.724 1.223-5.158 2.178-1.432.951-2.548 2.088-3.342 3.416-.795 1.331-1.193 2.829-1.193 4.486 0 1.518.347 2.813 1.038 3.885s1.685 1.979 2.981 2.722c1.294.744 2.876 1.354 4.741 1.839 1.867.485 3.974.901 6.322 1.246l5.028.672a55.282 55.282 0 0 1 8.603 1.921c2.798.861 5.294 2.069 7.489 3.626a17.89 17.89 0 0 1 5.286 5.856c1.332 2.348 1.997 5.2 1.997 8.551 0 3.698-.778 6.963-2.333 9.796-1.557 2.833-3.664 5.217-6.323 7.149-2.663 1.938-5.746 3.408-9.251 4.409-3.509 1.001-7.231 1.502-11.17 1.502-2.455 0-5.001-.206-7.644-.625a53.243 53.243 0 0 1-7.827-1.835 47.636 47.636 0 0 1-7.387-3.032c-2.35-1.211-4.457-2.627-6.322-4.254l6.375-9.326c1.246 1.137 2.738 2.196 4.484 3.163a38.781 38.781 0 0 0 5.622 2.538 39.337 39.337 0 0 0 6.245 1.685 35.45 35.45 0 0 0 6.4.598c2.386 0 4.605-.241 6.661-.727 2.057-.484 3.845-1.195 5.364-2.126 1.519-.932 2.721-2.065 3.602-3.396.883-1.327 1.323-2.821 1.323-4.479 0-2.837-1.393-4.995-4.172-6.481-2.783-1.486-6.833-2.592-12.154-3.318l-5.649-.775a44.215 44.215 0 0 1-7.904-1.868c-2.573-.856-4.871-2.076-6.894-3.651-2.022-1.572-3.646-3.54-4.871-5.908-1.229-2.363-1.842-5.239-1.842-8.628 0-3.629.753-6.85 2.257-9.669a21.092 21.092 0 0 1 6.14-7.099c2.591-1.921 5.624-3.38 9.096-4.378 3.472-1.005 7.177-1.505 11.118-1.505 5.287 0 10.063.698 14.328 2.099a49.463 49.463 0 0 1 11.898 5.725l-5.96 9.483zm39.545 5.547c3.453 0 6.624.633 9.509 1.891 2.884 1.265 5.354 3.042 7.411 5.341 2.056 2.298 3.662 5.045 4.821 8.239 1.155 3.198 1.735 6.73 1.735 10.601 0 .689-.018 1.381-.051 2.072-.037.69-.087 1.347-.157 1.968H77.585c.345 2.247.986 4.164 1.917 5.752.931 1.591 2.057 2.896 3.369 3.916a13.255 13.255 0 0 0 4.408 2.251c1.622.485 3.314.726 5.077.726 2.49 0 4.983-.454 7.489-1.369a24.288 24.288 0 0 0 6.868-3.862l5.389 7.72c-3.039 2.593-6.26 4.409-9.664 5.441-3.404 1.04-6.988 1.557-10.755 1.557-3.732 0-7.154-.625-10.262-1.863-3.109-1.245-5.787-3.008-8.033-5.286-2.247-2.282-3.992-5.03-5.234-8.244-1.244-3.214-1.867-6.788-1.867-10.728 0-3.87.604-7.413 1.814-10.623 1.209-3.214 2.903-5.969 5.078-8.267 2.178-2.299 4.776-4.076 7.802-5.341 3.022-1.259 6.366-1.892 10.03-1.892zm-.21 9.64c-1.935 0-3.652.291-5.156.878-1.502.594-2.8 1.428-3.887 2.519-1.087 1.087-1.978 2.383-2.668 3.885-.693 1.502-1.176 3.151-1.452 4.949h25.758c-.588-3.87-1.969-6.878-4.147-9.017-2.176-2.141-4.992-3.214-8.448-3.214zm57.581-9.64c3.732 0 7.204.664 10.416 1.995 3.216 1.331 5.927 3.31 8.14 5.935l-6.948 7.409c-1.76-1.657-3.592-2.927-5.492-3.808-1.9-.881-4.042-1.319-6.426-1.319-2.074 0-4.011.388-5.806 1.164a13.875 13.875 0 0 0-4.664 3.264c-1.314 1.398-2.342 3.078-3.085 5.027-.741 1.956-1.114 4.106-1.114 6.454s.373 4.503 1.114 6.454c.743 1.953 1.771 3.629 3.085 5.027a13.95 13.95 0 0 0 4.664 3.264c1.795.776 3.732 1.164 5.806 1.164 2.383 0 4.611-.492 6.684-1.475 2.074-.982 3.906-2.221 5.494-3.707l6.688 7.464c-2.281 2.624-5.011 4.604-8.19 5.935s-6.633 1.995-10.365 1.995c-3.94 0-7.516-.664-10.73-1.995-3.211-1.331-5.959-3.163-8.24-5.492-2.28-2.333-4.042-5.088-5.286-8.271-1.244-3.175-1.867-6.629-1.867-10.363 0-3.729.623-7.188 1.867-10.367 1.244-3.179 3.006-5.935 5.286-8.263 2.28-2.333 5.028-4.165 8.24-5.496 3.213-1.331 6.789-1.995 10.729-1.995zm74.112 29.905c0 3.936-.656 7.324-1.968 10.157-1.314 2.833-3.043 5.151-5.184 6.947-2.143 1.798-4.595 3.117-7.359 3.963a28.867 28.867 0 0 1-8.502 1.27c-2.901 0-5.734-.423-8.498-1.27-2.766-.846-5.226-2.165-7.387-3.963-2.16-1.796-3.887-4.114-5.182-6.947-1.298-2.833-1.944-6.222-1.944-10.157v-28.608h10.883v27.623c0 2.382.313 4.417.932 6.089.623 1.677 1.479 3.032 2.567 4.071a9.786 9.786 0 0 0 3.86 2.252c1.487.466 3.076.698 4.768.698 1.694 0 3.282-.232 4.771-.698a9.793 9.793 0 0 0 3.86-2.252c1.089-1.039 1.944-2.395 2.565-4.071.621-1.672.934-3.707.934-6.089v-27.623h10.883v28.608zm39.543-29.905c1.659 0 3.151.112 4.483.337a19.58 19.58 0 0 1 3.862 1.06l-2.591 10.732c-1.141-.591-2.472-1.036-3.99-1.351-1.521-.311-2.94-.466-4.252-.466-1.727 0-3.314.295-4.766.882a10.077 10.077 0 0 0-3.732 2.592c-1.038 1.141-1.849 2.539-2.438 4.195-.588 1.662-.881 3.544-.881 5.652v27.312h-10.833v-49.648h10.73v5.596c1.657-2.387 3.714-4.13 6.167-5.235 2.454-1.107 5.202-1.658 8.241-1.658zm36.387 0c3.455 0 6.625.633 9.51 1.891 2.888 1.265 5.356 3.042 7.413 5.341 2.053 2.298 3.659 5.045 4.82 8.239 1.152 3.198 1.731 6.73 1.731 10.601 0 .689-.017 1.381-.047 2.072-.039.69-.089 1.347-.159 1.968h-36.694c.345 2.247.984 4.164 1.917 5.752.932 1.591 2.057 2.896 3.368 3.916a13.246 13.246 0 0 0 4.406 2.251c1.622.485 3.318.726 5.076.726 2.492 0 4.988-.454 7.491-1.369a24.326 24.326 0 0 0 6.87-3.862l5.387 7.72c-3.039 2.593-6.261 4.409-9.664 5.441-3.404 1.04-6.986 1.557-10.755 1.557-3.73 0-7.153-.625-10.263-1.863-3.109-1.245-5.787-3.008-8.032-5.286-2.248-2.282-3.992-5.03-5.234-8.244-1.246-3.214-1.867-6.788-1.867-10.728 0-3.87.604-7.413 1.814-10.623 1.209-3.214 2.901-5.969 5.079-8.267 2.177-2.299 4.776-4.076 7.799-5.341 3.026-1.259 6.37-1.892 10.034-1.892zm-.21 9.64c-1.933 0-3.652.291-5.157.878-1.501.594-2.799 1.428-3.888 2.519-1.087 1.087-1.978 2.383-2.667 3.885-.692 1.502-1.176 3.151-1.451 4.949h25.762c-.591-3.87-1.972-6.878-4.149-9.017-2.178-2.141-4.991-3.214-8.45-3.214zm70.434-32.602c3.214 0 6.327.345 9.33 1.036 3.009.695 5.804 1.692 8.396 3.008 2.589 1.316 4.945 2.911 7.049 4.798 2.107 1.882 3.874 3.994 5.286 6.346l-9.792 6.528a23.817 23.817 0 0 0-8.527-7.669c-3.478-1.863-7.386-2.795-11.741-2.795-3.699 0-7.119.637-10.262 1.913-3.145 1.281-5.857 3.078-8.14 5.392-2.278 2.313-4.067 5.097-5.359 8.345-1.297 3.249-1.945 6.823-1.945 10.728s.648 7.483 1.945 10.729c1.292 3.249 3.081 6.027 5.359 8.345 2.282 2.317 4.995 4.11 8.14 5.387 3.143 1.281 6.563 1.918 10.262 1.918 4.316 0 8.197-.912 11.633-2.744 3.442-1.832 6.299-4.386 8.581-7.67l9.54 6.998a31.302 31.302 0 0 1-5.468 6.113 34.14 34.14 0 0 1-6.949 4.614 36.382 36.382 0 0 1-8.189 2.928c-2.922.675-5.969 1.013-9.147 1.013-5.563 0-10.678-.943-15.339-2.829-4.665-1.88-8.675-4.5-12.024-7.849-3.354-3.354-5.961-7.324-7.829-11.92-1.862-4.6-2.798-9.605-2.798-15.032s.936-10.433 2.798-15.032c1.868-4.596 4.476-8.569 7.829-11.919 3.35-3.35 7.359-5.966 12.024-7.848 4.66-1.889 9.775-2.832 15.337-2.832zm64.011 22.962c3.834 0 7.382.664 10.646 1.995 3.268 1.331 6.09 3.163 8.473 5.496 2.387 2.328 4.25 5.084 5.601 8.263 1.347 3.179 2.019 6.638 2.019 10.367 0 3.734-.672 7.188-2.019 10.363-1.351 3.183-3.214 5.938-5.601 8.271-2.383 2.329-5.205 4.161-8.473 5.492-3.265 1.331-6.813 1.995-10.646 1.995-3.839 0-7.391-.664-10.654-1.995-3.268-1.331-6.082-3.163-8.446-5.492-2.371-2.333-4.222-5.088-5.573-8.271-1.347-3.175-2.018-6.629-2.018-10.363 0-3.729.671-7.188 2.018-10.367 1.352-3.179 3.202-5.935 5.573-8.263 2.364-2.333 5.179-4.165 8.446-5.496 3.264-1.331 6.815-1.995 10.654-1.995zm0 10.212c-2.217 0-4.271.388-6.172 1.164-1.897.776-3.543 1.867-4.921 3.264-1.386 1.398-2.473 3.078-3.268 5.027-.793 1.956-1.192 4.106-1.192 6.454s.399 4.503 1.192 6.454c.795 1.953 1.882 3.629 3.268 5.027 1.378 1.396 3.023 2.483 4.921 3.264 1.901.776 3.955 1.164 6.172 1.164 2.209 0 4.262-.388 6.163-1.164 1.897-.78 3.552-1.867 4.949-3.264 1.401-1.398 2.495-3.074 3.295-5.027.792-1.951 1.191-4.106 1.191-6.454s-.399-4.498-1.191-6.454c-.8-1.949-1.894-3.629-3.295-5.027-1.397-1.396-3.052-2.487-4.949-3.264-1.901-.777-3.954-1.164-6.163-1.164zM492 128.844c3.56 0 6.618.664 9.172 1.995 2.558 1.331 4.7 3.104 6.432 5.313v-30.996h10.832v74.633h-10.832v-5.957c-1.731 2.209-3.874 3.974-6.432 5.286-2.554 1.313-5.612 1.968-9.172 1.968-3.489 0-6.737-.644-9.742-1.944a24.19 24.19 0 0 1-7.878-5.418c-2.248-2.31-4.01-5.065-5.287-8.264-1.28-3.195-1.917-6.695-1.917-10.495s.637-7.301 1.917-10.495c1.277-3.194 3.039-5.954 5.287-8.268a24.225 24.225 0 0 1 7.878-5.414c3.005-1.296 6.253-1.944 9.742-1.944zm1.297 10.212c-2.353 0-4.448.423-6.3 1.265-1.848.85-3.408 1.991-4.688 3.423-1.278 1.433-2.264 3.117-2.955 5.054-.69 1.937-1.036 3.99-1.036 6.168 0 2.174.346 4.231 1.036 6.168.691 1.937 1.677 3.621 2.955 5.054 1.279 1.432 2.84 2.573 4.688 3.423 1.852.846 3.947 1.265 6.3 1.265 2.243 0 4.28-.403 6.117-1.219a14.108 14.108 0 0 0 4.715-3.342c1.313-1.412 2.329-3.089 3.055-5.025.726-1.934 1.091-4.041 1.091-6.323 0-2.278-.365-4.39-1.091-6.323-.726-1.937-1.742-3.608-3.055-5.025-1.312-1.417-2.883-2.531-4.715-3.346-1.837-.81-3.874-1.217-6.117-1.217zm61.211-10.212c3.455 0 6.622.633 9.507 1.891 2.883 1.265 5.359 3.042 7.412 5.341 2.058 2.298 3.66 5.045 4.821 8.239 1.157 3.198 1.735 6.73 1.735 10.601 0 .689-.021 1.381-.052 2.072-.034.69-.089 1.347-.154 1.968h-36.694c.342 2.247.982 4.164 1.918 5.752.932 1.591 2.053 2.896 3.369 3.916a13.212 13.212 0 0 0 4.405 2.251c1.622.485 3.318.726 5.076.726 2.492 0 4.987-.454 7.491-1.369a24.376 24.376 0 0 0 6.869-3.862l5.388 7.72c-3.043 2.593-6.265 4.409-9.669 5.441-3.399 1.04-6.981 1.557-10.75 1.557-3.73 0-7.154-.625-10.263-1.863-3.109-1.245-5.791-3.008-8.034-5.286-2.243-2.282-3.99-5.03-5.232-8.244-1.245-3.214-1.866-6.788-1.866-10.728 0-3.87.601-7.413 1.812-10.623 1.211-3.214 2.903-5.969 5.081-8.267 2.178-2.299 4.774-4.076 7.798-5.341 3.027-1.259 6.369-1.892 10.032-1.892zm28.649 50.945v-2.495h1.008v-.512h-2.564v.512h1.005v2.495h.551zm4.98 0v-3.012h-.784l-.904 2.072-.908-2.072h-.784v3.012h.555v-2.271l.847 1.957h.578l.846-1.964v2.277h.554zM554.3 138.484c-1.938 0-3.653.291-5.159.878-1.502.594-2.798 1.428-3.889 2.519-1.087 1.087-1.976 2.383-2.666 3.885-.695 1.502-1.177 3.151-1.452 4.949h25.757c-.587-3.87-1.965-6.878-4.142-9.017-2.178-2.141-4.995-3.214-8.449-3.214z"/><path fill="#EB001B" d="M87.129 77.412h-12.15V15.484L52.993 70.046H40.199L18.211 16.074v61.338H6.061V2.152h18.656l21.88 53.758L68.476 2.152h18.653v75.26zm63.97 0h-11.236v-6.181c-1.792 2.294-4.013 4.12-6.665 5.482-2.652 1.364-5.826 2.045-9.515 2.045-3.622 0-6.988-.673-10.107-2.016-3.119-1.345-5.843-3.217-8.172-5.62-2.329-2.398-4.157-5.257-5.482-8.574-1.328-3.316-1.989-6.944-1.989-10.885 0-3.944.662-7.573 1.989-10.887 1.326-3.313 3.154-6.175 5.482-8.574 2.329-2.403 5.053-4.273 8.172-5.62 3.119-1.343 6.485-2.017 10.107-2.017 3.689 0 6.862.693 9.515 2.072 2.651 1.38 4.873 3.216 6.665 5.508v-6.233h11.236v51.5zm-26.073-42.254c-2.438 0-4.615.44-6.53 1.316-1.917.881-3.54 2.065-4.866 3.549-1.327 1.491-2.348 3.233-3.064 5.242-.718 2.009-1.075 4.139-1.075 6.398 0 2.257.356 4.39 1.075 6.396.716 2.008 1.737 3.757 3.064 5.242 1.326 1.488 2.948 2.668 4.866 3.55 1.915.875 4.092 1.315 6.53 1.315 2.331 0 4.444-.421 6.344-1.263s3.53-1.997 4.893-3.468c1.362-1.469 2.418-3.206 3.173-5.215.751-2.007 1.127-4.192 1.127-6.557 0-2.368-.376-4.553-1.127-6.56-.755-2.009-1.811-3.746-3.173-5.217a14.78 14.78 0 0 0-4.893-3.466c-1.899-.84-4.013-1.262-6.344-1.262zm77.679 3.655a31.083 31.083 0 0 0-2.901-1.477 32.855 32.855 0 0 0-3.817-1.424 39.968 39.968 0 0 0-4.435-1.075 26.24 26.24 0 0 0-4.758-.429c-3.082 0-5.475.563-7.177 1.693-1.702 1.127-2.554 2.608-2.554 4.436 0 .895.225 1.646.671 2.255.451.613 1.05 1.114 1.801 1.508.755.396 1.649.707 2.688.941 1.04.233 2.152.438 3.334.615l5.321.809c5.627.823 10.016 2.462 13.171 4.918 3.156 2.455 4.732 5.888 4.732 10.295 0 2.472-.53 4.741-1.586 6.799-1.058 2.061-2.581 3.837-4.57 5.322-1.989 1.488-4.444 2.643-7.365 3.47-2.92.823-6.228 1.232-9.918 1.232-1.326 0-2.868-.078-4.623-.239-1.756-.163-3.62-.485-5.589-.966a40.565 40.565 0 0 1-6.022-2.017c-2.043-.859-3.998-1.993-5.86-3.386l5.214-8.442a26.79 26.79 0 0 0 3.037 2.014 21.905 21.905 0 0 0 3.709 1.667c1.38.485 2.905.872 4.57 1.157 1.667.287 3.558.429 5.673.429 3.87 0 6.791-.563 8.762-1.692 1.97-1.127 2.958-2.66 2.958-4.597 0-1.467-.718-2.676-2.152-3.629-1.435-.947-3.691-1.638-6.773-2.067l-5.376-.7c-5.735-.789-10.08-2.461-13.036-5.027-2.957-2.56-4.436-5.92-4.436-10.08 0-2.546.493-4.84 1.479-6.879.984-2.043 2.4-3.773 4.246-5.189 1.846-1.415 4.078-2.508 6.694-3.278 2.616-.772 5.574-1.155 8.871-1.155 4.05 0 7.865.474 11.452 1.424 3.583.947 6.719 2.282 9.406 4.004l-4.841 8.76zm53.329-2.688h-19.73v22.42c0 1.717.217 3.188.644 4.407.431 1.216 1.015 2.214 1.749 2.985a6.653 6.653 0 0 0 2.579 1.692c.986.357 2.051.537 3.2.537 1.756 0 3.538-.337 5.349-1.022a27.972 27.972 0 0 0 5.028-2.471l4.459 8.976c-2.079 1.397-4.417 2.601-7.013 3.602-2.601 1.004-5.529 1.508-8.792 1.508-5.841 0-10.385-1.62-13.627-4.865-3.245-3.245-4.865-8.287-4.865-15.135V36.125h-10.268V25.913h10.268V10.322h11.289v15.591h19.73v10.212zm34.565-11.559c3.583 0 6.875.656 9.866 1.964 2.993 1.308 5.555 3.154 7.689 5.539 2.131 2.383 3.796 5.234 4.999 8.545 1.199 3.317 1.802 6.982 1.802 10.996 0 .718-.02 1.436-.055 2.15a39.159 39.159 0 0 1-.159 2.041h-38.064c.357 2.331 1.021 4.321 1.989 5.97.966 1.647 2.133 3 3.493 4.058a13.828 13.828 0 0 0 4.57 2.338c1.685.505 3.441.751 5.268.751 2.58 0 5.169-.473 7.77-1.424a25.013 25.013 0 0 0 7.123-4.003l5.592 8.007c-3.154 2.69-6.497 4.572-10.028 5.647-3.532 1.075-7.25 1.614-11.153 1.614-3.872 0-7.421-.648-10.645-1.936-3.226-1.291-6.004-3.117-8.333-5.483-2.329-2.368-4.14-5.214-5.43-8.55-1.289-3.33-1.935-7.041-1.935-11.125 0-4.016.627-7.689 1.88-11.023 1.255-3.33 3.012-6.189 5.269-8.572 2.259-2.385 4.955-4.23 8.092-5.539 3.134-1.309 6.603-1.965 10.4-1.965zm-.213 10.002c-2.008 0-3.79.305-5.351.914-1.558.61-2.903 1.477-4.03 2.606-1.13 1.131-2.054 2.472-2.77 4.032-.718 1.559-1.217 3.272-1.506 5.134h26.721c-.609-4.012-2.041-7.132-4.301-9.354-2.258-2.221-5.18-3.332-8.763-3.332zm63.486-10.002c1.724 0 3.272.118 4.65.352 1.382.233 2.717.601 4.005 1.1l-2.686 11.129c-1.184-.609-2.562-1.075-4.142-1.397-1.576-.32-3.047-.481-4.405-.481-1.793 0-3.442.303-4.948.913a10.428 10.428 0 0 0-3.87 2.688c-1.075 1.182-1.917 2.633-2.527 4.354-.608 1.718-.911 3.674-.911 5.859v28.33h-11.236v-51.5h11.128v5.805c1.72-2.472 3.854-4.281 6.396-5.428 2.542-1.147 5.391-1.724 8.546-1.724zm38.437 0c3.874 0 7.476.693 10.806 2.072 3.335 1.38 6.144 3.434 8.438 6.156l-7.204 7.688c-1.828-1.723-3.722-3.039-5.689-3.953-1.98-.912-4.2-1.373-6.673-1.373-2.146 0-4.152.404-6.02 1.211a14.348 14.348 0 0 0-4.84 3.389c-1.358 1.452-2.426 3.189-3.194 5.211-.776 2.025-1.156 4.255-1.156 6.695 0 2.438.38 4.667 1.156 6.693.769 2.022 1.836 3.761 3.194 5.215a14.363 14.363 0 0 0 4.84 3.384c1.867.81 3.873 1.211 6.02 1.211 2.473 0 4.782-.512 6.933-1.531 2.15-1.022 4.056-2.303 5.701-3.846l6.933 7.744a22.716 22.716 0 0 1-8.488 6.153c-3.304 1.38-6.882 2.072-10.756 2.072-4.083 0-7.794-.692-11.124-2.072-3.334-1.38-6.187-3.277-8.55-5.696-2.364-2.422-4.192-5.279-5.48-8.576-1.292-3.299-1.937-6.881-1.937-10.75 0-3.872.645-7.455 1.937-10.754 1.288-3.296 3.116-6.153 5.48-8.575 2.363-2.418 5.216-4.316 8.55-5.696 3.329-1.379 7.04-2.072 11.123-2.072zm79.136 52.846h-11.237v-6.181c-1.792 2.294-4.013 4.12-6.663 5.482-2.655 1.364-5.826 2.045-9.518 2.045-3.621 0-6.99-.673-10.107-2.016-3.116-1.345-5.841-3.217-8.17-5.62-2.332-2.398-4.157-5.257-5.483-8.574-1.324-3.316-1.992-6.944-1.992-10.885 0-3.944.668-7.573 1.992-10.887 1.326-3.313 3.151-6.175 5.483-8.574 2.329-2.403 5.054-4.273 8.17-5.62 3.117-1.343 6.486-2.017 10.107-2.017 3.691 0 6.862.693 9.518 2.072 2.65 1.38 4.871 3.216 6.663 5.508v-6.233h11.237v51.5zM445.37 35.158c-2.437 0-4.614.44-6.532 1.316-1.917.881-3.536 2.065-4.862 3.549-1.324 1.491-2.35 3.233-3.067 5.242-.714 2.009-1.075 4.139-1.075 6.398 0 2.257.361 4.39 1.075 6.396.718 2.008 1.743 3.757 3.067 5.242 1.326 1.488 2.945 2.668 4.862 3.55 1.918.875 4.096 1.315 6.532 1.315 2.328 0 4.444-.421 6.346-1.263 1.898-.842 3.528-1.997 4.891-3.468 1.362-1.469 2.418-3.206 3.172-5.215.757-2.007 1.129-4.192 1.129-6.557 0-2.368-.372-4.553-1.129-6.56-.754-2.009-1.81-3.746-3.172-5.217a14.781 14.781 0 0 0-4.891-3.466c-1.902-.84-4.018-1.262-6.346-1.262zm68.703-10.592c1.723 0 3.272.118 4.65.352 1.381.233 2.716.601 4.005 1.1l-2.689 11.129c-1.18-.609-2.558-1.075-4.134-1.397-1.58-.32-3.051-.481-4.413-.481-1.793 0-3.438.303-4.94.913-1.51.609-2.8 1.503-3.874 2.688-1.075 1.182-1.917 2.633-2.527 4.354-.609 1.718-.915 3.674-.915 5.859v28.33h-11.232v-51.5h11.127v5.805c1.72-2.472 3.851-4.281 6.396-5.428 2.546-1.147 5.394-1.724 8.546-1.724zm36.881 0c3.691 0 6.861.693 9.516 2.072 2.652 1.38 4.871 3.216 6.665 5.508V0h11.236v77.412h-11.236v-6.181c-1.794 2.294-4.013 4.12-6.665 5.482-2.654 1.364-5.824 2.045-9.516 2.045-3.622 0-6.99-.673-10.107-2.016-3.116-1.345-5.842-3.217-8.17-5.62-2.329-2.398-4.157-5.257-5.485-8.574-1.323-3.316-1.99-6.944-1.99-10.885 0-3.944.667-7.573 1.99-10.887 1.328-3.313 3.156-6.175 5.485-8.574 2.328-2.403 5.054-4.273 8.17-5.62 3.117-1.342 6.485-2.016 10.107-2.016zm40.535 48.084a3.375 3.375 0 0 1 2.357.96c.303.297.544.645.714 1.042.176.4.264.823.264 1.273 0 .449-.088.871-.264 1.268-.17.396-.411.743-.714 1.04s-.656.532-1.06.704a3.22 3.22 0 0 1-1.297.262c-.47 0-.908-.087-1.319-.262-.407-.172-.765-.407-1.063-.704s-.536-.645-.71-1.04a3.101 3.101 0 0 1-.26-1.268c0-.45.085-.873.26-1.273.174-.398.411-.745.71-1.042a3.3 3.3 0 0 1 1.063-.702c.411-.173.85-.258 1.319-.258zm0 5.828a2.474 2.474 0 0 0 1.789-.747c.233-.229.412-.501.544-.81a2.52 2.52 0 0 0 .198-.996c0-.353-.066-.685-.198-.996a2.54 2.54 0 0 0-1.343-1.353 2.475 2.475 0 0 0-.99-.196c-.356 0-.694.063-1.005.196a2.475 2.475 0 0 0-.814.542 2.575 2.575 0 0 0-.544.811 2.592 2.592 0 0 0-.194.996c0 .354.066.685.194.996.132.308.314.58.544.81a2.557 2.557 0 0 0 1.819.747zm.195-4.085c.393 0 .691.085.905.26.209.175.314.411.314.71a.822.822 0 0 1-.253.623c-.167.164-.407.262-.718.301l.997 1.147h-.78l-.924-1.14h-.295v1.14h-.652v-3.041h1.406zm-.753.57v.809h.745a.72.72 0 0 0 .408-.101c.104-.066.155-.169.155-.308a.334.334 0 0 0-.155-.301.74.74 0 0 0-.408-.099h-.745zm-38.635-39.805c-2.438 0-4.615.44-6.531 1.316-1.918.881-3.536 2.065-4.864 3.549-1.323 1.491-2.348 3.233-3.065 5.242-.714 2.009-1.075 4.139-1.075 6.398 0 2.257.361 4.39 1.075 6.396.718 2.008 1.742 3.757 3.065 5.242 1.328 1.488 2.946 2.668 4.864 3.55 1.916.875 4.094 1.315 6.531 1.315 2.329 0 4.444-.421 6.347-1.263 1.897-.842 3.528-1.997 4.891-3.468 1.362-1.469 2.418-3.206 3.17-5.215.757-2.007 1.134-4.192 1.134-6.557 0-2.368-.377-4.553-1.134-6.56-.752-2.009-1.808-3.746-3.17-5.217a14.792 14.792 0 0 0-4.891-3.466c-1.903-.84-4.018-1.262-6.347-1.262z"/></svg>